<svg xmlns="http://www.w3.org/2000/svg" xmlns:xlink="http://www.w3.org/1999/xlink" width="500" zoomAndPan="magnify" viewBox="0 0 375 374.999991" height="500" preserveAspectRatio="xMidYMid meet" version="1.0"><defs><clipPath id="17e8857088"><path d="M 82.980469 131.25 L 292.160156 131.25 L 292.160156 243.75 L 82.980469 243.75 Z M 82.980469 131.25 " clip-rule="nonzero"/></clipPath><clipPath id="10cdafba53"><path d="M 100.230469 131.25 L 274.769531 131.25 C 279.34375 131.25 283.734375 133.066406 286.96875 136.300781 C 290.203125 139.539062 292.019531 143.925781 292.019531 148.5 L 292.019531 226.5 C 292.019531 231.074219 290.203125 235.460938 286.96875 238.699219 C 283.734375 241.933594 279.34375 243.75 274.769531 243.75 L 100.230469 243.75 C 95.65625 243.75 91.265625 241.933594 88.03125 238.699219 C 84.796875 235.460938 82.980469 231.074219 82.980469 226.5 L 82.980469 148.5 C 82.980469 143.925781 84.796875 139.539062 88.03125 136.300781 C 91.265625 133.066406 95.65625 131.25 100.230469 131.25 Z M 100.230469 131.25 " clip-rule="nonzero"/></clipPath><clipPath id="95d51679f9"><path d="M 112.5 160.363281 L 262 160.363281 L 262 214.363281 L 112.5 214.363281 Z M 112.5 160.363281 " clip-rule="nonzero"/></clipPath></defs><g clip-path="url(#17e8857088)"><g clip-path="url(#10cdafba53)"><path fill="#a7e8ce" d="M 82.980469 131.25 L 292.160156 131.25 L 292.160156 243.75 L 82.980469 243.75 Z M 82.980469 131.25 " fill-opacity="1" fill-rule="nonzero"/></g></g><g clip-path="url(#95d51679f9)"><path fill="#ffffff" d="M 261.441406 181.949219 L 254.789062 197.484375 L 254.917969 206.601562 C 254.921875 206.871094 254.941406 207.140625 254.953125 207.40625 C 255.019531 209.148438 254.398438 210.859375 253.21875 212.15625 C 251.945312 213.554688 250.128906 214.359375 248.234375 214.359375 L 240.945312 214.359375 C 237.433594 214.359375 219.863281 214.359375 213.15625 214.359375 L 201.949219 214.359375 C 201.386719 214.359375 199.230469 214.359375 198.667969 214.359375 L 190.953125 214.359375 C 188.078125 214.359375 185.523438 212.539062 184.59375 209.832031 L 184.355469 209.144531 L 182.816406 209.144531 L 182.53125 209.9375 C 181.570312 212.589844 179.039062 214.359375 176.203125 214.359375 L 168.574219 214.359375 C 168.109375 214.359375 166.285156 214.359375 165.808594 214.359375 L 147.480469 214.359375 C 146.742188 214.359375 143.914062 214.359375 143.175781 214.359375 L 134.949219 214.359375 C 133.492188 214.359375 128.46875 214.359375 126.980469 214.359375 L 119.691406 214.359375 C 117.773438 214.359375 115.941406 213.539062 114.667969 212.113281 C 113.480469 210.789062 112.875 209.042969 112.980469 207.273438 C 112.996094 207.019531 113.011719 206.765625 113.011719 206.511719 C 112.996094 204.523438 112.925781 195.378906 113.011719 194.625 L 116.347656 166.277344 C 116.742188 162.90625 119.613281 160.363281 123.023438 160.363281 L 134.671875 160.363281 C 138.40625 160.363281 147.433594 160.363281 149.476562 160.363281 L 166.925781 160.363281 C 168.746094 160.363281 177.097656 160.363281 179.871094 160.363281 L 187.902344 160.363281 C 190.683594 160.363281 199.539062 160.363281 201.332031 160.363281 L 212.003906 160.363281 C 213.902344 160.363281 227.402344 160.363281 228.597656 160.363281 L 236.472656 160.363281 C 238.667969 160.363281 240.722656 161.4375 241.972656 163.207031 C 243.214844 161.460938 245.261719 160.363281 247.46875 160.363281 L 255.257812 160.363281 C 257.519531 160.363281 259.617188 161.484375 260.867188 163.363281 C 262 165.070312 262.085938 180.445312 261.441406 181.949219 Z M 261.441406 181.949219 " fill-opacity="1" fill-rule="nonzero"/></g><path fill="#000000" d="M 167.15625 189.6875 L 167.015625 193.207031 C 167.109375 193.378906 167.164062 193.574219 167.15625 193.777344 L 167.015625 197.296875 C 167.109375 197.46875 167.164062 197.664062 167.15625 197.867188 L 167.015625 201.386719 C 167.109375 201.558594 167.164062 201.757812 167.15625 201.957031 L 166.925781 207.710938 C 166.902344 208.308594 166.410156 208.78125 165.808594 208.78125 L 147.480469 208.78125 C 147.167969 208.78125 146.871094 208.65625 146.660156 208.429688 C 146.449219 208.203125 146.339844 207.898438 146.363281 207.589844 L 146.597656 204.253906 C 146.429688 204.039062 146.34375 203.773438 146.363281 203.5 L 146.597656 200.164062 C 146.429688 199.949219 146.34375 199.683594 146.363281 199.410156 L 146.597656 196.074219 C 146.429688 195.859375 146.34375 195.59375 146.363281 195.320312 L 148.359375 166.976562 C 148.402344 166.390625 148.890625 165.9375 149.480469 165.9375 L 166.925781 165.9375 C 167.230469 165.9375 167.523438 166.0625 167.734375 166.28125 C 167.945312 166.5 168.058594 166.792969 168.046875 167.097656 L 167.910156 170.613281 C 168.003906 170.789062 168.054688 170.984375 168.046875 171.1875 L 167.910156 174.703125 C 168.003906 174.878906 168.054688 175.074219 168.046875 175.277344 L 167.910156 178.792969 C 168.003906 178.96875 168.054688 179.164062 168.046875 179.367188 L 167.835938 184.683594 C 167.8125 185.28125 167.320312 185.753906 166.71875 185.753906 L 166.292969 185.753906 C 166.351562 185.898438 166.378906 186.054688 166.375 186.210938 L 166.277344 188.554688 C 166.492188 188.601562 166.6875 188.710938 166.84375 188.871094 C 167.054688 189.089844 167.167969 189.386719 167.15625 189.6875 Z M 256.289062 171.582031 L 255.203125 174.117188 L 255.257812 174.117188 C 255.636719 174.117188 255.984375 174.304688 256.195312 174.617188 C 256.402344 174.929688 256.4375 175.324219 256.289062 175.671875 L 255.203125 178.207031 L 255.257812 178.207031 C 255.636719 178.207031 255.984375 178.398438 256.195312 178.710938 C 256.402344 179.019531 256.4375 179.417969 256.289062 179.761719 L 249.074219 196.617188 L 249.347656 199.378906 C 249.378906 199.691406 249.277344 200.003906 249.066406 200.238281 C 249.054688 200.25 249.039062 200.257812 249.027344 200.269531 L 249.347656 203.46875 C 249.378906 203.78125 249.277344 204.09375 249.066406 204.328125 C 249.054688 204.339844 249.039062 204.347656 249.027344 204.359375 L 249.347656 207.558594 C 249.378906 207.871094 249.277344 208.183594 249.066406 208.417969 C 248.851562 208.652344 248.550781 208.785156 248.234375 208.785156 L 240.945312 208.785156 C 240.363281 208.785156 239.878906 208.34375 239.828125 207.765625 L 239.003906 198.351562 L 229.023438 182.148438 C 229.019531 182.796875 228.984375 183.433594 228.910156 184.050781 C 228.941406 184.328125 228.964844 184.609375 228.984375 184.894531 C 229.058594 186.015625 229.03125 187.101562 228.910156 188.140625 C 228.941406 188.417969 228.964844 188.699219 228.984375 188.984375 C 229.058594 190.105469 229.03125 191.191406 228.910156 192.230469 C 228.941406 192.511719 228.964844 192.789062 228.984375 193.074219 C 229.28125 197.464844 228.027344 201.285156 225.367188 204.117188 C 222.496094 207.171875 218.273438 208.785156 213.15625 208.785156 L 201.945312 208.785156 C 201.335938 208.785156 200.839844 208.300781 200.828125 207.691406 L 200.210938 179.347656 C 200.210938 179.199219 200.238281 179.050781 200.292969 178.914062 L 200.210938 175.257812 C 200.210938 175.109375 200.238281 174.960938 200.292969 174.820312 L 200.210938 171.167969 C 200.210938 171.015625 200.238281 170.871094 200.292969 170.730469 L 200.210938 167.078125 C 200.207031 166.777344 200.320312 166.488281 200.53125 166.273438 C 200.742188 166.058594 201.03125 165.9375 201.332031 165.9375 L 212.003906 165.9375 C 216.726562 165.9375 220.832031 167.347656 223.875 170.011719 C 225.441406 171.382812 226.667969 173.039062 227.53125 174.917969 C 227.554688 174.839844 227.578125 174.761719 227.621094 174.6875 C 227.820312 174.335938 228.191406 174.117188 228.597656 174.117188 L 229.117188 174.117188 L 227.644531 171.726562 C 227.429688 171.382812 227.421875 170.949219 227.621094 170.597656 C 227.820312 170.246094 228.191406 170.027344 228.597656 170.027344 L 229.117188 170.027344 L 227.644531 167.636719 C 227.429688 167.292969 227.421875 166.859375 227.621094 166.507812 C 227.820312 166.15625 228.191406 165.9375 228.597656 165.9375 L 236.472656 165.9375 C 236.875 165.9375 237.246094 166.152344 237.445312 166.5 L 242.871094 175.976562 L 246.421875 166.65625 C 246.585938 166.226562 247.003906 165.9375 247.46875 165.9375 L 255.257812 165.9375 C 255.636719 165.9375 255.984375 166.125 256.195312 166.4375 C 256.402344 166.75 256.4375 167.144531 256.289062 167.492188 L 255.203125 170.027344 L 255.257812 170.027344 C 255.636719 170.027344 255.984375 170.214844 256.195312 170.527344 C 256.402344 170.839844 256.4375 171.234375 256.289062 171.582031 Z M 210.042969 186.109375 L 210.109375 188.074219 L 212.441406 188.074219 C 213.996094 188.074219 215.335938 187.792969 216.417969 187.257812 C 215.199219 186.503906 213.648438 186.109375 211.785156 186.109375 Z M 229.117188 178.207031 L 228.257812 176.8125 C 228.398438 177.265625 228.519531 177.734375 228.621094 178.207031 Z M 145.40625 177.003906 C 145.484375 176.601562 145.546875 176.1875 145.582031 175.765625 C 145.785156 173.136719 145.042969 170.832031 143.429688 169.097656 C 141.507812 167.03125 138.480469 165.9375 134.671875 165.9375 L 123.023438 165.9375 C 122.457031 165.9375 121.976562 166.363281 121.910156 166.921875 L 118.578125 195.269531 C 118.542969 195.585938 118.640625 195.902344 118.855469 196.140625 C 118.882812 196.171875 118.914062 196.195312 118.945312 196.222656 L 118.578125 199.359375 C 118.542969 199.675781 118.640625 199.992188 118.855469 200.230469 C 118.882812 200.261719 118.917969 200.285156 118.945312 200.3125 L 118.578125 203.449219 C 118.542969 203.765625 118.640625 204.082031 118.855469 204.320312 C 118.882812 204.351562 118.917969 204.375 118.949219 204.402344 L 118.578125 207.539062 C 118.542969 207.855469 118.640625 208.171875 118.855469 208.410156 C 119.066406 208.648438 119.371094 208.785156 119.691406 208.785156 L 126.980469 208.785156 C 127.554688 208.785156 128.035156 208.351562 128.09375 207.785156 L 129.148438 197.777344 L 133.933594 208.132812 C 134.117188 208.53125 134.515625 208.785156 134.953125 208.785156 L 143.175781 208.785156 C 143.566406 208.785156 143.925781 208.582031 144.132812 208.253906 C 144.335938 207.921875 144.351562 207.511719 144.175781 207.164062 L 142.921875 204.695312 L 143.175781 204.695312 C 143.566406 204.695312 143.925781 204.492188 144.128906 204.164062 C 144.335938 203.832031 144.351562 203.421875 144.175781 203.074219 L 142.921875 200.601562 L 143.175781 200.601562 C 143.566406 200.601562 143.925781 200.402344 144.128906 200.074219 C 144.335938 199.742188 144.351562 199.332031 144.175781 198.984375 L 142.921875 196.511719 L 143.175781 196.511719 C 143.566406 196.511719 143.925781 196.3125 144.128906 195.984375 C 144.335938 195.652344 144.351562 195.242188 144.175781 194.894531 L 143.453125 193.472656 C 144.671875 191.957031 145.417969 190.105469 145.582031 188.035156 C 145.660156 187.035156 145.597656 186.078125 145.40625 185.183594 C 145.484375 184.78125 145.546875 184.371094 145.582031 183.945312 C 145.660156 182.945312 145.597656 181.988281 145.40625 181.09375 C 145.484375 180.691406 145.546875 180.28125 145.582031 179.855469 C 145.660156 178.851562 145.597656 177.898438 145.40625 177.003906 Z M 199.589844 196.03125 C 199.800781 195.730469 199.847656 195.347656 199.714844 195.003906 L 188.953125 166.660156 C 188.785156 166.226562 188.371094 165.9375 187.902344 165.9375 L 179.871094 165.9375 C 179.410156 165.9375 178.996094 166.21875 178.828125 166.640625 L 167.535156 194.988281 C 167.398438 195.332031 167.441406 195.71875 167.648438 196.023438 C 167.855469 196.324219 168.191406 196.503906 168.554688 196.511719 L 167.535156 199.078125 C 167.398438 199.421875 167.441406 199.808594 167.648438 200.113281 C 167.855469 200.414062 168.191406 200.59375 168.554688 200.601562 L 167.535156 203.167969 C 167.398438 203.511719 167.441406 203.898438 167.648438 204.207031 C 167.855469 204.503906 168.191406 204.683594 168.554688 204.691406 L 167.535156 207.257812 C 167.398438 207.601562 167.441406 207.988281 167.648438 208.296875 C 167.855469 208.601562 168.203125 208.785156 168.574219 208.785156 L 176.203125 208.785156 C 176.675781 208.785156 177.097656 208.488281 177.257812 208.046875 L 178.878906 203.570312 L 188.359375 203.570312 L 189.894531 208.03125 C 190.046875 208.480469 190.472656 208.785156 190.953125 208.785156 L 198.667969 208.785156 C 199.035156 208.785156 199.378906 208.605469 199.589844 208.304688 C 199.796875 208 199.847656 207.617188 199.714844 207.273438 L 198.734375 204.6875 C 199.074219 204.664062 199.394531 204.496094 199.589844 204.210938 C 199.796875 203.910156 199.847656 203.527344 199.714844 203.183594 L 198.734375 200.597656 C 199.074219 200.574219 199.394531 200.40625 199.589844 200.121094 C 199.796875 199.820312 199.847656 199.4375 199.714844 199.09375 L 198.734375 196.503906 C 199.074219 196.484375 199.394531 196.316406 199.589844 196.03125 Z M 199.589844 196.03125 " fill-opacity="1" fill-rule="nonzero"/><path fill="#4b39b5" d="M 133.050781 178.355469 L 130.332031 178.355469 L 130.390625 177.769531 L 133.726562 177.769531 C 134.113281 177.769531 134.574219 177.808594 134.988281 177.933594 C 134.539062 178.191406 133.917969 178.355469 133.050781 178.355469 Z M 134.949219 200.601562 C 134.511719 200.601562 134.117188 200.351562 133.933594 199.953125 L 129.148438 189.597656 L 128.835938 192.546875 L 129.855469 192.546875 L 134.949219 203.578125 L 143.175781 203.578125 L 141.664062 200.601562 Z M 120.039062 200.601562 L 119.691406 203.578125 L 126.980469 203.578125 L 127.296875 200.550781 C 127.195312 200.582031 127.089844 200.601562 126.980469 200.601562 Z M 140.554688 187.761719 L 141.566406 189.753906 C 143.355469 188.152344 144.292969 186.035156 144.464844 183.859375 C 144.46875 183.820312 144.46875 183.78125 144.472656 183.746094 C 143.605469 185.390625 142.269531 186.761719 140.554688 187.761719 Z M 147.6875 200.601562 L 147.480469 203.578125 L 165.808594 203.578125 L 165.925781 200.59375 C 165.886719 200.597656 165.847656 200.601562 165.808594 200.601562 Z M 165.15625 188.5 C 165.117188 188.507812 165.074219 188.515625 165.03125 188.515625 L 156.527344 188.515625 L 156.527344 188.53125 L 165.15625 188.53125 Z M 166.292969 177.574219 C 166.351562 177.71875 166.378906 177.875 166.375 178.03125 L 166.269531 180.550781 L 166.71875 180.550781 L 166.835938 177.5625 C 166.796875 177.566406 166.757812 177.574219 166.71875 177.574219 Z M 190.953125 200.601562 C 190.472656 200.601562 190.046875 200.300781 189.894531 199.847656 L 188.363281 195.390625 L 178.882812 195.390625 L 177.257812 199.867188 C 177.097656 200.308594 176.675781 200.601562 176.207031 200.601562 L 169.761719 200.601562 L 168.574219 203.578125 L 176.207031 203.578125 L 178.09375 198.367188 L 189.164062 198.367188 L 190.953125 203.578125 L 198.667969 203.578125 L 197.539062 200.601562 Z M 183.777344 182.59375 L 184.128906 183.621094 L 184.351562 183.621094 L 183.753906 181.886719 L 183.132812 183.621094 L 183.410156 183.621094 Z M 213.15625 200.601562 L 201.949219 200.601562 C 201.925781 200.601562 201.90625 200.597656 201.882812 200.597656 L 201.949219 203.578125 L 213.15625 203.578125 C 221.414062 203.578125 226.816406 199.085938 227.757812 192.359375 C 227.164062 193.675781 226.363281 194.875 225.367188 195.9375 C 222.496094 198.988281 218.273438 200.601562 213.15625 200.601562 Z M 211.785156 180.902344 C 215.09375 180.902344 217.617188 182.078125 219.109375 184.21875 C 219.191406 183.988281 219.261719 183.746094 219.320312 183.496094 C 218.585938 179.890625 215.960938 177.925781 211.785156 177.925781 L 209.761719 177.925781 L 209.863281 180.902344 Z M 229.804688 175.234375 L 228.597656 175.234375 L 239.203125 192.449219 L 239.003906 190.167969 Z M 254.726562 175.234375 L 248.742188 189.210938 L 248.84375 190.21875 L 255.257812 175.234375 Z M 240.945312 200.601562 C 240.855469 200.601562 240.765625 200.589844 240.679688 200.570312 L 240.945312 203.578125 L 248.234375 203.578125 L 247.9375 200.601562 Z M 240.945312 200.601562 " fill-opacity="1" fill-rule="nonzero"/><path fill="#6482f4" d="M 141.664062 196.511719 L 143.175781 199.488281 L 134.949219 199.488281 L 129.855469 188.457031 L 128.835938 188.457031 L 129.148438 185.503906 L 133.933594 195.863281 C 134.113281 196.257812 134.511719 196.511719 134.949219 196.511719 Z M 135.832031 177.070312 C 136.039062 176.675781 136.117188 176.242188 136.152344 175.855469 C 136.21875 175.164062 136.09375 174.640625 135.78125 174.300781 C 135.308594 173.789062 134.402344 173.679688 133.726562 173.679688 L 130.390625 173.679688 L 130.078125 176.65625 L 133.726562 176.65625 C 134.589844 176.65625 135.289062 176.804688 135.832031 177.070312 Z M 138.886719 184.480469 L 140.046875 186.765625 C 142.832031 185.117188 144.25 182.492188 144.464844 179.769531 C 144.46875 179.730469 144.46875 179.691406 144.46875 179.652344 C 143.339844 181.800781 141.417969 183.488281 138.886719 184.480469 Z M 120.042969 196.511719 L 119.691406 199.488281 L 126.980469 199.488281 L 127.296875 196.460938 C 127.195312 196.492188 127.089844 196.511719 126.980469 196.511719 Z M 157.164062 173.484375 L 156.992188 176.460938 L 166.71875 176.460938 L 166.835938 173.472656 C 166.796875 173.476562 166.757812 173.484375 166.71875 173.484375 Z M 147.6875 196.511719 L 147.480469 199.488281 L 165.808594 199.488281 L 165.925781 196.5 C 165.886719 196.503906 165.847656 196.511719 165.808594 196.511719 Z M 165.15625 184.410156 C 165.117188 184.417969 165.074219 184.425781 165.03125 184.425781 L 156.527344 184.425781 L 156.355469 187.398438 L 165.03125 187.398438 Z M 190.953125 196.511719 C 190.472656 196.511719 190.046875 196.210938 189.894531 195.757812 L 188.363281 191.300781 L 178.882812 191.300781 L 177.257812 195.777344 C 177.097656 196.21875 176.675781 196.511719 176.207031 196.511719 L 169.761719 196.511719 L 168.574219 199.488281 L 176.207031 199.488281 L 178.09375 194.277344 L 189.164062 194.277344 L 190.953125 199.488281 L 198.667969 199.488281 L 197.539062 196.511719 Z M 183.777344 178.503906 L 185.535156 183.621094 L 185.753906 183.621094 L 183.753906 177.796875 L 181.667969 183.621094 L 181.945312 183.621094 Z M 213.15625 196.511719 L 201.949219 196.511719 C 201.925781 196.511719 201.90625 196.507812 201.882812 196.507812 L 201.949219 199.488281 L 213.15625 199.488281 C 221.417969 199.488281 226.816406 194.996094 227.757812 188.269531 C 227.164062 189.585938 226.363281 190.785156 225.367188 191.847656 C 222.496094 194.898438 218.273438 196.511719 213.15625 196.511719 Z M 211.785156 176.8125 C 215.402344 176.8125 218.078125 178.214844 219.496094 180.753906 C 219.183594 176.292969 216.453125 173.835938 211.785156 173.835938 L 209.625 173.835938 L 209.726562 176.8125 Z M 254.726562 171.144531 L 248.410156 185.894531 L 248.511719 186.902344 L 255.257812 171.144531 Z M 229.804688 171.144531 L 228.597656 171.144531 L 239.203125 188.359375 L 239.003906 186.078125 Z M 240.945312 196.511719 C 240.855469 196.511719 240.765625 196.5 240.679688 196.476562 L 240.945312 199.488281 L 248.234375 199.488281 L 247.9375 196.511719 Z M 240.945312 196.511719 " fill-opacity="1" fill-rule="nonzero"/><path fill="#a7e8ce" d="M 134.671875 167.054688 L 123.023438 167.054688 L 119.691406 195.398438 L 126.980469 195.398438 L 128.140625 184.367188 L 129.855469 184.367188 L 134.949219 195.398438 L 143.175781 195.398438 L 137.304688 183.839844 C 141.925781 182.535156 144.191406 179.1875 144.464844 175.679688 C 144.839844 170.886719 141.648438 167.054688 134.671875 167.054688 Z M 137.269531 175.957031 C 137.070312 178.144531 135.707031 179.46875 133.050781 179.46875 L 128.65625 179.46875 L 129.382812 172.566406 L 133.726562 172.566406 C 136.347656 172.566406 137.457031 173.902344 137.269531 175.957031 Z M 149.476562 167.054688 L 166.925781 167.054688 L 166.71875 172.371094 L 156.109375 172.371094 L 155.78125 177.988281 L 165.253906 177.988281 L 165.03125 183.308594 L 155.472656 183.308594 L 155.101562 189.644531 L 166.035156 189.644531 L 165.808594 195.398438 L 147.480469 195.398438 Z M 179.871094 167.054688 L 168.574219 195.398438 L 176.203125 195.398438 L 178.09375 190.183594 L 189.164062 190.183594 L 190.953125 195.398438 L 198.667969 195.398438 L 187.902344 167.054688 Z M 180.078125 184.738281 L 183.777344 174.414062 L 187.320312 184.738281 Z M 212.003906 167.054688 L 201.332031 167.054688 L 201.949219 195.398438 L 213.15625 195.398438 C 222.707031 195.398438 228.441406 189.394531 227.867188 180.878906 C 227.308594 172.566406 221.09375 167.054688 212.003906 167.054688 Z M 212.441406 189.1875 L 209.023438 189.1875 L 208.464844 172.722656 L 211.785156 172.722656 C 217.070312 172.722656 220.351562 175.71875 220.632812 180.878906 C 220.921875 186.128906 217.882812 189.1875 212.441406 189.1875 Z M 247.265625 185.71875 L 248.234375 195.398438 L 240.945312 195.398438 L 240.097656 185.71875 L 228.597656 167.054688 L 236.472656 167.054688 L 243.074219 178.585938 L 247.46875 167.054688 L 255.257812 167.054688 Z M 247.265625 185.71875 " fill-opacity="1" fill-rule="nonzero"/></svg>