<svg xmlns="http://www.w3.org/2000/svg" xmlns:xlink="http://www.w3.org/1999/xlink" width="500" zoomAndPan="magnify" viewBox="0 0 375 374.999991" height="500" preserveAspectRatio="xMidYMid meet" version="1.0"><defs><g/><clipPath id="b62723bdf8"><path d="M 0 139.621094 L 375 139.621094 L 375 252.121094 L 0 252.121094 Z M 0 139.621094 " clip-rule="nonzero"/></clipPath><clipPath id="4d7ae126cc"><path d="M 14.132812 151 L 70 151 L 70 174 L 14.132812 174 Z M 14.132812 151 " clip-rule="nonzero"/></clipPath></defs><g clip-path="url(#b62723bdf8)"><path fill="#534b9d" d="M 0 139.621094 L 374.851562 139.621094 L 374.851562 252.121094 L 0 252.121094 Z M 0 139.621094 " fill-opacity="1" fill-rule="nonzero"/></g><g fill="#000000" fill-opacity="0.4"><g transform="translate(138.31902, 212.862998)"><g><path d="M 11.625 -3.609375 C 11.625 -5.734375 9.9375 -7.40625 7.828125 -7.40625 C 7.703125 -7.40625 7.578125 -7.40625 7.46875 -7.390625 L 7.46875 -22.359375 L 4.03125 -22.359375 L 4.03125 -3.609375 C 4.03125 -1.5 5.734375 0.1875 7.828125 0.1875 C 9.953125 0.1875 11.625 -1.5 11.625 -3.609375 Z M 7.828125 -2.265625 C 7.03125 -2.265625 6.5 -2.90625 6.5 -3.609375 C 6.5 -4.40625 7.125 -4.953125 7.828125 -4.953125 C 8.640625 -4.953125 9.171875 -4.3125 9.171875 -3.609375 C 9.171875 -2.8125 8.546875 -2.265625 7.828125 -2.265625 Z M 7.828125 -2.265625 "/></g></g></g><g fill="#000000" fill-opacity="0.4"><g transform="translate(152.470715, 212.862998)"><g><path d="M 2.5 -19.65625 L 2.5 -16.046875 L 6.921875 -14.140625 C 4.5 -12.90625 3.71875 -10.078125 3.71875 -8.78125 L 3.71875 0 L 7.140625 0 L 7.140625 -8.65625 C 7.140625 -10.78125 8.453125 -12.171875 10.078125 -12.796875 L 10.078125 -15.5625 L 5.421875 -17.671875 C 7 -18.890625 9.4375 -19.953125 12.109375 -19.953125 C 16.765625 -19.953125 17.9375 -17.125 17.9375 -13.765625 L 17.9375 0 L 21.328125 0 L 21.328125 -14.0625 C 21.328125 -21.15625 16.203125 -22.921875 12.390625 -22.921875 C 6.453125 -22.921875 3.421875 -20.40625 2.5 -19.65625 Z M 2.5 -19.65625 "/></g></g></g><g fill="#000000" fill-opacity="0.4"><g transform="translate(177.787732, 212.862998)"><g><path d="M 6.046875 -22.546875 C 3.9375 -22.546875 2.25 -20.875 2.25 -18.75 C 2.25 -16.65625 3.921875 -14.953125 6.046875 -14.953125 C 6.703125 -14.953125 7.03125 -14.984375 7.046875 -15.015625 L 7.046875 -7.765625 C 7.046875 -7.78125 6.609375 -7.78125 5.71875 -7.78125 C 4.15625 -7.78125 1.921875 -6.421875 1.921875 -3.796875 C 1.921875 -1.03125 3.796875 0.375 5.71875 0.375 C 9.53125 0.375 10.515625 -2.0625 10.515625 -3.9375 C 13.46875 -3.21875 16.1875 -1.921875 18.640625 0 L 22.1875 0 L 22.1875 -22.359375 L 18.75 -22.359375 L 18.75 -3.890625 C 16.015625 -5.578125 13.265625 -6.703125 10.515625 -7.234375 L 10.515625 -17.921875 C 10.515625 -20.1875 9.140625 -22.546875 6.046875 -22.546875 Z M 5.71875 -5.140625 C 6.421875 -5.140625 7.046875 -4.59375 7.046875 -3.796875 C 7.046875 -3.09375 6.515625 -2.453125 5.71875 -2.453125 C 5 -2.453125 4.375 -3 4.375 -3.796875 C 4.375 -4.5 4.90625 -5.140625 5.71875 -5.140625 Z M 6.046875 -20.09375 C 6.75 -20.09375 7.390625 -19.5625 7.390625 -18.75 C 7.390625 -18.046875 6.84375 -17.421875 6.046875 -17.421875 C 5.34375 -17.421875 4.703125 -17.953125 4.703125 -18.75 C 4.703125 -19.46875 5.25 -20.09375 6.046875 -20.09375 Z M 6.046875 -20.09375 "/></g></g></g><g fill="#000000" fill-opacity="0.4"><g transform="translate(203.663017, 212.862998)"><g><path d="M 21.859375 -3.609375 C 21.859375 -5.734375 20.171875 -7.40625 18.0625 -7.40625 C 17.9375 -7.40625 17.8125 -7.40625 17.703125 -7.390625 L 17.703125 -22.359375 L 14.265625 -22.359375 L 14.265625 -3.609375 C 14.265625 -1.5 15.96875 0.1875 18.0625 0.1875 C 20.1875 0.1875 21.859375 -1.5 21.859375 -3.609375 Z M 18.0625 -2.265625 C 17.265625 -2.265625 16.734375 -2.90625 16.734375 -3.609375 C 16.734375 -4.40625 17.359375 -4.953125 18.0625 -4.953125 C 18.875 -4.953125 19.40625 -4.3125 19.40625 -3.609375 C 19.40625 -2.8125 18.78125 -2.265625 18.0625 -2.265625 Z M 11.4375 -3.609375 C 11.4375 -5.734375 9.75 -7.40625 7.640625 -7.40625 C 7.515625 -7.40625 7.390625 -7.40625 7.28125 -7.390625 L 7.28125 -22.359375 L 3.859375 -22.359375 L 3.859375 -3.609375 C 3.859375 -1.5 5.546875 0.1875 7.640625 0.1875 C 9.765625 0.1875 11.4375 -1.5 11.4375 -3.609375 Z M 7.640625 -2.265625 C 6.84375 -2.265625 6.3125 -2.90625 6.3125 -3.609375 C 6.3125 -4.40625 6.9375 -4.953125 7.640625 -4.953125 C 8.453125 -4.953125 8.984375 -4.3125 8.984375 -3.609375 C 8.984375 -2.8125 8.359375 -2.265625 7.640625 -2.265625 Z M 7.640625 -2.265625 "/></g></g></g><g fill="#000000" fill-opacity="0.4"><g transform="translate(228.049589, 212.862998)"><g><path d="M 3.375 -9.046875 L 3.375 -5.390625 C 3.375 -2.515625 4.25 0.1875 7.71875 0.1875 C 9.265625 0.1875 11.8125 -0.65625 11.8125 -3.640625 C 11.8125 -6.625 9.296875 -7.375 7.984375 -7.375 C 7.53125 -7.375 7.125 -7.296875 6.828125 -7.140625 L 6.828125 -8.875 C 6.828125 -12 7.953125 -13.125 9.546875 -13.125 C 12.484375 -13.125 14.34375 -9.078125 16.921875 -0.015625 L 20.703125 0 L 20.703125 -14.0625 C 20.703125 -21.15625 15.703125 -22.921875 11.34375 -22.921875 C 6.234375 -22.921875 3.578125 -21.609375 2.828125 -21.25 L 2.828125 -18.09375 C 5.078125 -19.078125 7.953125 -19.953125 11.34375 -19.953125 C 14.921875 -19.953125 17.3125 -17.5625 17.3125 -13.765625 L 17.3125 -7.5625 C 16.46875 -10.171875 15.484375 -12.265625 14.34375 -13.8125 C 13.171875 -15.40625 11.375 -16.15625 9.625 -16.15625 C 5.140625 -16.15625 3.375 -11.765625 3.375 -9.046875 Z M 9.34375 -3.609375 C 9.34375 -2.859375 8.75 -2.203125 7.921875 -2.203125 C 7.1875 -2.203125 6.515625 -2.796875 6.515625 -3.609375 C 6.515625 -4.359375 7.125 -4.96875 7.953125 -4.96875 C 8.75 -4.96875 9.34375 -4.328125 9.34375 -3.609375 Z M 9.34375 -3.609375 "/></g></g></g><g fill="#000000" fill-opacity="0.4"><g transform="translate(252.436161, 212.862998)"><g><path d="M 2.5 -19.65625 L 2.5 -16.046875 L 6.921875 -14.140625 C 4.5 -12.90625 3.71875 -10.078125 3.71875 -8.78125 L 3.71875 0 L 7.140625 0 L 7.140625 -8.65625 C 7.140625 -10.78125 8.453125 -12.171875 10.078125 -12.796875 L 10.078125 -15.5625 L 5.421875 -17.671875 C 7 -18.890625 9.4375 -19.953125 12.109375 -19.953125 C 16.765625 -19.953125 17.9375 -17.125 17.9375 -13.765625 L 17.9375 0 L 21.328125 0 L 21.328125 -14.0625 C 21.328125 -21.15625 16.203125 -22.921875 12.390625 -22.921875 C 6.453125 -22.921875 3.421875 -20.40625 2.5 -19.65625 Z M 2.5 -19.65625 "/></g></g></g><g fill="#000000" fill-opacity="0.4"><g transform="translate(277.753181, 212.862998)"><g><path d="M 3.375 -9.046875 L 3.375 -5.390625 C 3.375 -2.53125 4.25 0.1875 7.71875 0.1875 C 9.265625 0.1875 11.8125 -0.65625 11.8125 -3.640625 C 11.8125 -6.625 9.28125 -7.375 8 -7.375 C 7.53125 -7.375 7.125 -7.296875 6.828125 -7.140625 L 6.828125 -8.875 C 6.828125 -12.015625 7.953125 -13.125 9.546875 -13.125 C 12.484375 -13.125 14.3125 -9.15625 16.921875 0 L 20.703125 0 L 20.703125 -14.0625 C 20.703125 -15.890625 20.375 -17.4375 19.71875 -18.71875 C 20.671875 -19.578125 21.5 -20.46875 22.1875 -21.40625 L 20.140625 -24.46875 C 19.265625 -23.28125 18.421875 -22.1875 17.609375 -21.1875 C 16.015625 -22.34375 13.9375 -22.921875 11.34375 -22.921875 C 6.234375 -22.921875 3.578125 -21.625 2.828125 -21.25 L 2.828125 -18.09375 C 5.078125 -19.078125 7.953125 -19.953125 11.34375 -19.953125 C 12.890625 -19.953125 14.171875 -19.515625 15.1875 -18.703125 C 14.5625 -18.140625 13.9375 -17.625 13.3125 -17.15625 L 14.703125 -15.21875 L 16.828125 -16.5 C 17.140625 -15.703125 17.3125 -14.796875 17.3125 -13.765625 L 17.3125 -7.5625 C 16.46875 -10.171875 15.484375 -12.265625 14.34375 -13.8125 C 13.15625 -15.40625 11.375 -16.15625 9.609375 -16.15625 C 5.234375 -16.15625 3.375 -11.921875 3.375 -9.046875 Z M 9.34375 -3.609375 C 9.34375 -2.859375 8.75 -2.203125 7.921875 -2.203125 C 7.1875 -2.203125 6.515625 -2.796875 6.515625 -3.609375 C 6.515625 -4.359375 7.125 -4.96875 7.953125 -4.96875 C 8.75 -4.96875 9.34375 -4.328125 9.34375 -3.609375 Z M 9.34375 -3.609375 "/></g></g></g><g fill="#000000" fill-opacity="0.4"><g transform="translate(301.758628, 212.862998)"><g><path d="M -10.40625 -27.5625 C -9.78125 -28.375 -9.515625 -29.46875 -9.515625 -30.90625 C -9.515625 -32.0625 -10.125 -33.828125 -12.796875 -33.828125 C -14.484375 -33.828125 -15.765625 -32.59375 -15.765625 -31.078125 C -15.765625 -29.4375 -14.5625 -28.25 -13.09375 -28.25 C -12.546875 -28.25 -12.125 -28.28125 -11.953125 -28.375 C -12.28125 -27.90625 -13.03125 -26.609375 -14.734375 -26.609375 L -14.734375 -25.015625 L -13.9375 -25.015625 C -10.546875 -25.015625 -5.375 -25.234375 -1.03125 -31.03125 L -2.03125 -33.71875 C -5.078125 -28.640625 -7.875 -27.96875 -10.40625 -27.5625 Z M -14.21875 -30.984375 C -14.21875 -31.765625 -13.5625 -32.328125 -12.734375 -32.328125 C -11.96875 -32.328125 -11.296875 -31.796875 -11.296875 -30.984375 C -11.296875 -30.234375 -11.953125 -29.609375 -12.78125 -29.609375 C -13.609375 -29.609375 -14.21875 -30.25 -14.21875 -30.984375 Z M -14.21875 -30.984375 "/></g></g></g><g fill="#000000" fill-opacity="0.4"><g transform="translate(302.139753, 212.862998)"><g><path d="M 6.046875 -22.546875 C 3.9375 -22.546875 2.25 -20.875 2.25 -18.75 C 2.25 -16.65625 3.921875 -14.953125 6.046875 -14.953125 C 6.703125 -14.953125 7.03125 -14.984375 7.046875 -15.015625 L 7.046875 -7.765625 C 7.046875 -7.78125 6.609375 -7.78125 5.71875 -7.78125 C 4.15625 -7.78125 1.921875 -6.421875 1.921875 -3.796875 C 1.921875 -1.03125 3.796875 0.375 5.71875 0.375 C 9.53125 0.375 10.515625 -2.0625 10.515625 -3.9375 C 13.46875 -3.21875 16.1875 -1.921875 18.640625 0 L 22.1875 0 L 22.1875 -22.359375 L 18.75 -22.359375 L 18.75 -3.890625 C 16.015625 -5.578125 13.265625 -6.703125 10.515625 -7.234375 L 10.515625 -17.921875 C 10.515625 -20.1875 9.140625 -22.546875 6.046875 -22.546875 Z M 5.71875 -5.140625 C 6.421875 -5.140625 7.046875 -4.59375 7.046875 -3.796875 C 7.046875 -3.09375 6.515625 -2.453125 5.71875 -2.453125 C 5 -2.453125 4.375 -3 4.375 -3.796875 C 4.375 -4.5 4.90625 -5.140625 5.71875 -5.140625 Z M 6.046875 -20.09375 C 6.75 -20.09375 7.390625 -19.5625 7.390625 -18.75 C 7.390625 -18.046875 6.84375 -17.421875 6.046875 -17.421875 C 5.34375 -17.421875 4.703125 -17.953125 4.703125 -18.75 C 4.703125 -19.46875 5.25 -20.09375 6.046875 -20.09375 Z M 6.046875 -20.09375 "/></g></g></g><g fill="#fee5e0" fill-opacity="1"><g transform="translate(135.38821, 209.932197)"><g><path d="M 11.625 -3.609375 C 11.625 -5.734375 9.9375 -7.40625 7.828125 -7.40625 C 7.703125 -7.40625 7.578125 -7.40625 7.46875 -7.390625 L 7.46875 -22.359375 L 4.03125 -22.359375 L 4.03125 -3.609375 C 4.03125 -1.5 5.734375 0.1875 7.828125 0.1875 C 9.953125 0.1875 11.625 -1.5 11.625 -3.609375 Z M 7.828125 -2.265625 C 7.03125 -2.265625 6.5 -2.90625 6.5 -3.609375 C 6.5 -4.40625 7.125 -4.953125 7.828125 -4.953125 C 8.640625 -4.953125 9.171875 -4.3125 9.171875 -3.609375 C 9.171875 -2.8125 8.546875 -2.265625 7.828125 -2.265625 Z M 7.828125 -2.265625 "/></g></g></g><g fill="#fee5e0" fill-opacity="1"><g transform="translate(149.539904, 209.932197)"><g><path d="M 2.5 -19.65625 L 2.5 -16.046875 L 6.921875 -14.140625 C 4.5 -12.90625 3.71875 -10.078125 3.71875 -8.78125 L 3.71875 0 L 7.140625 0 L 7.140625 -8.65625 C 7.140625 -10.78125 8.453125 -12.171875 10.078125 -12.796875 L 10.078125 -15.5625 L 5.421875 -17.671875 C 7 -18.890625 9.4375 -19.953125 12.109375 -19.953125 C 16.765625 -19.953125 17.9375 -17.125 17.9375 -13.765625 L 17.9375 0 L 21.328125 0 L 21.328125 -14.0625 C 21.328125 -21.15625 16.203125 -22.921875 12.390625 -22.921875 C 6.453125 -22.921875 3.421875 -20.40625 2.5 -19.65625 Z M 2.5 -19.65625 "/></g></g></g><g fill="#fee5e0" fill-opacity="1"><g transform="translate(174.856922, 209.932197)"><g><path d="M 6.046875 -22.546875 C 3.9375 -22.546875 2.25 -20.875 2.25 -18.75 C 2.25 -16.65625 3.921875 -14.953125 6.046875 -14.953125 C 6.703125 -14.953125 7.03125 -14.984375 7.046875 -15.015625 L 7.046875 -7.765625 C 7.046875 -7.78125 6.609375 -7.78125 5.71875 -7.78125 C 4.15625 -7.78125 1.921875 -6.421875 1.921875 -3.796875 C 1.921875 -1.03125 3.796875 0.375 5.71875 0.375 C 9.53125 0.375 10.515625 -2.0625 10.515625 -3.9375 C 13.46875 -3.21875 16.1875 -1.921875 18.640625 0 L 22.1875 0 L 22.1875 -22.359375 L 18.75 -22.359375 L 18.75 -3.890625 C 16.015625 -5.578125 13.265625 -6.703125 10.515625 -7.234375 L 10.515625 -17.921875 C 10.515625 -20.1875 9.140625 -22.546875 6.046875 -22.546875 Z M 5.71875 -5.140625 C 6.421875 -5.140625 7.046875 -4.59375 7.046875 -3.796875 C 7.046875 -3.09375 6.515625 -2.453125 5.71875 -2.453125 C 5 -2.453125 4.375 -3 4.375 -3.796875 C 4.375 -4.5 4.90625 -5.140625 5.71875 -5.140625 Z M 6.046875 -20.09375 C 6.75 -20.09375 7.390625 -19.5625 7.390625 -18.75 C 7.390625 -18.046875 6.84375 -17.421875 6.046875 -17.421875 C 5.34375 -17.421875 4.703125 -17.953125 4.703125 -18.75 C 4.703125 -19.46875 5.25 -20.09375 6.046875 -20.09375 Z M 6.046875 -20.09375 "/></g></g></g><g fill="#fee5e0" fill-opacity="1"><g transform="translate(200.732207, 209.932197)"><g><path d="M 21.859375 -3.609375 C 21.859375 -5.734375 20.171875 -7.40625 18.0625 -7.40625 C 17.9375 -7.40625 17.8125 -7.40625 17.703125 -7.390625 L 17.703125 -22.359375 L 14.265625 -22.359375 L 14.265625 -3.609375 C 14.265625 -1.5 15.96875 0.1875 18.0625 0.1875 C 20.1875 0.1875 21.859375 -1.5 21.859375 -3.609375 Z M 18.0625 -2.265625 C 17.265625 -2.265625 16.734375 -2.90625 16.734375 -3.609375 C 16.734375 -4.40625 17.359375 -4.953125 18.0625 -4.953125 C 18.875 -4.953125 19.40625 -4.3125 19.40625 -3.609375 C 19.40625 -2.8125 18.78125 -2.265625 18.0625 -2.265625 Z M 11.4375 -3.609375 C 11.4375 -5.734375 9.75 -7.40625 7.640625 -7.40625 C 7.515625 -7.40625 7.390625 -7.40625 7.28125 -7.390625 L 7.28125 -22.359375 L 3.859375 -22.359375 L 3.859375 -3.609375 C 3.859375 -1.5 5.546875 0.1875 7.640625 0.1875 C 9.765625 0.1875 11.4375 -1.5 11.4375 -3.609375 Z M 7.640625 -2.265625 C 6.84375 -2.265625 6.3125 -2.90625 6.3125 -3.609375 C 6.3125 -4.40625 6.9375 -4.953125 7.640625 -4.953125 C 8.453125 -4.953125 8.984375 -4.3125 8.984375 -3.609375 C 8.984375 -2.8125 8.359375 -2.265625 7.640625 -2.265625 Z M 7.640625 -2.265625 "/></g></g></g><g fill="#fee5e0" fill-opacity="1"><g transform="translate(225.118779, 209.932197)"><g><path d="M 3.375 -9.046875 L 3.375 -5.390625 C 3.375 -2.515625 4.25 0.1875 7.71875 0.1875 C 9.265625 0.1875 11.8125 -0.65625 11.8125 -3.640625 C 11.8125 -6.625 9.296875 -7.375 7.984375 -7.375 C 7.53125 -7.375 7.125 -7.296875 6.828125 -7.140625 L 6.828125 -8.875 C 6.828125 -12 7.953125 -13.125 9.546875 -13.125 C 12.484375 -13.125 14.34375 -9.078125 16.921875 -0.015625 L 20.703125 0 L 20.703125 -14.0625 C 20.703125 -21.15625 15.703125 -22.921875 11.34375 -22.921875 C 6.234375 -22.921875 3.578125 -21.609375 2.828125 -21.25 L 2.828125 -18.09375 C 5.078125 -19.078125 7.953125 -19.953125 11.34375 -19.953125 C 14.921875 -19.953125 17.3125 -17.5625 17.3125 -13.765625 L 17.3125 -7.5625 C 16.46875 -10.171875 15.484375 -12.265625 14.34375 -13.8125 C 13.171875 -15.40625 11.375 -16.15625 9.625 -16.15625 C 5.140625 -16.15625 3.375 -11.765625 3.375 -9.046875 Z M 9.34375 -3.609375 C 9.34375 -2.859375 8.75 -2.203125 7.921875 -2.203125 C 7.1875 -2.203125 6.515625 -2.796875 6.515625 -3.609375 C 6.515625 -4.359375 7.125 -4.96875 7.953125 -4.96875 C 8.75 -4.96875 9.34375 -4.328125 9.34375 -3.609375 Z M 9.34375 -3.609375 "/></g></g></g><g fill="#fee5e0" fill-opacity="1"><g transform="translate(249.505351, 209.932197)"><g><path d="M 2.5 -19.65625 L 2.5 -16.046875 L 6.921875 -14.140625 C 4.5 -12.90625 3.71875 -10.078125 3.71875 -8.78125 L 3.71875 0 L 7.140625 0 L 7.140625 -8.65625 C 7.140625 -10.78125 8.453125 -12.171875 10.078125 -12.796875 L 10.078125 -15.5625 L 5.421875 -17.671875 C 7 -18.890625 9.4375 -19.953125 12.109375 -19.953125 C 16.765625 -19.953125 17.9375 -17.125 17.9375 -13.765625 L 17.9375 0 L 21.328125 0 L 21.328125 -14.0625 C 21.328125 -21.15625 16.203125 -22.921875 12.390625 -22.921875 C 6.453125 -22.921875 3.421875 -20.40625 2.5 -19.65625 Z M 2.5 -19.65625 "/></g></g></g><g fill="#fee5e0" fill-opacity="1"><g transform="translate(274.82237, 209.932197)"><g><path d="M 3.375 -9.046875 L 3.375 -5.390625 C 3.375 -2.53125 4.25 0.1875 7.71875 0.1875 C 9.265625 0.1875 11.8125 -0.65625 11.8125 -3.640625 C 11.8125 -6.625 9.28125 -7.375 8 -7.375 C 7.53125 -7.375 7.125 -7.296875 6.828125 -7.140625 L 6.828125 -8.875 C 6.828125 -12.015625 7.953125 -13.125 9.546875 -13.125 C 12.484375 -13.125 14.3125 -9.15625 16.921875 0 L 20.703125 0 L 20.703125 -14.0625 C 20.703125 -15.890625 20.375 -17.4375 19.71875 -18.71875 C 20.671875 -19.578125 21.5 -20.46875 22.1875 -21.40625 L 20.140625 -24.46875 C 19.265625 -23.28125 18.421875 -22.1875 17.609375 -21.1875 C 16.015625 -22.34375 13.9375 -22.921875 11.34375 -22.921875 C 6.234375 -22.921875 3.578125 -21.625 2.828125 -21.25 L 2.828125 -18.09375 C 5.078125 -19.078125 7.953125 -19.953125 11.34375 -19.953125 C 12.890625 -19.953125 14.171875 -19.515625 15.1875 -18.703125 C 14.5625 -18.140625 13.9375 -17.625 13.3125 -17.15625 L 14.703125 -15.21875 L 16.828125 -16.5 C 17.140625 -15.703125 17.3125 -14.796875 17.3125 -13.765625 L 17.3125 -7.5625 C 16.46875 -10.171875 15.484375 -12.265625 14.34375 -13.8125 C 13.15625 -15.40625 11.375 -16.15625 9.609375 -16.15625 C 5.234375 -16.15625 3.375 -11.921875 3.375 -9.046875 Z M 9.34375 -3.609375 C 9.34375 -2.859375 8.75 -2.203125 7.921875 -2.203125 C 7.1875 -2.203125 6.515625 -2.796875 6.515625 -3.609375 C 6.515625 -4.359375 7.125 -4.96875 7.953125 -4.96875 C 8.75 -4.96875 9.34375 -4.328125 9.34375 -3.609375 Z M 9.34375 -3.609375 "/></g></g></g><g fill="#fee5e0" fill-opacity="1"><g transform="translate(298.827818, 209.932197)"><g><path d="M -10.40625 -27.5625 C -9.78125 -28.375 -9.515625 -29.46875 -9.515625 -30.90625 C -9.515625 -32.0625 -10.125 -33.828125 -12.796875 -33.828125 C -14.484375 -33.828125 -15.765625 -32.59375 -15.765625 -31.078125 C -15.765625 -29.4375 -14.5625 -28.25 -13.09375 -28.25 C -12.546875 -28.25 -12.125 -28.28125 -11.953125 -28.375 C -12.28125 -27.90625 -13.03125 -26.609375 -14.734375 -26.609375 L -14.734375 -25.015625 L -13.9375 -25.015625 C -10.546875 -25.015625 -5.375 -25.234375 -1.03125 -31.03125 L -2.03125 -33.71875 C -5.078125 -28.640625 -7.875 -27.96875 -10.40625 -27.5625 Z M -14.21875 -30.984375 C -14.21875 -31.765625 -13.5625 -32.328125 -12.734375 -32.328125 C -11.96875 -32.328125 -11.296875 -31.796875 -11.296875 -30.984375 C -11.296875 -30.234375 -11.953125 -29.609375 -12.78125 -29.609375 C -13.609375 -29.609375 -14.21875 -30.25 -14.21875 -30.984375 Z M -14.21875 -30.984375 "/></g></g></g><g fill="#fee5e0" fill-opacity="1"><g transform="translate(299.208942, 209.932197)"><g><path d="M 6.046875 -22.546875 C 3.9375 -22.546875 2.25 -20.875 2.25 -18.75 C 2.25 -16.65625 3.921875 -14.953125 6.046875 -14.953125 C 6.703125 -14.953125 7.03125 -14.984375 7.046875 -15.015625 L 7.046875 -7.765625 C 7.046875 -7.78125 6.609375 -7.78125 5.71875 -7.78125 C 4.15625 -7.78125 1.921875 -6.421875 1.921875 -3.796875 C 1.921875 -1.03125 3.796875 0.375 5.71875 0.375 C 9.53125 0.375 10.515625 -2.0625 10.515625 -3.9375 C 13.46875 -3.21875 16.1875 -1.921875 18.640625 0 L 22.1875 0 L 22.1875 -22.359375 L 18.75 -22.359375 L 18.75 -3.890625 C 16.015625 -5.578125 13.265625 -6.703125 10.515625 -7.234375 L 10.515625 -17.921875 C 10.515625 -20.1875 9.140625 -22.546875 6.046875 -22.546875 Z M 5.71875 -5.140625 C 6.421875 -5.140625 7.046875 -4.59375 7.046875 -3.796875 C 7.046875 -3.09375 6.515625 -2.453125 5.71875 -2.453125 C 5 -2.453125 4.375 -3 4.375 -3.796875 C 4.375 -4.5 4.90625 -5.140625 5.71875 -5.140625 Z M 6.046875 -20.09375 C 6.75 -20.09375 7.390625 -19.5625 7.390625 -18.75 C 7.390625 -18.046875 6.84375 -17.421875 6.046875 -17.421875 C 5.34375 -17.421875 4.703125 -17.953125 4.703125 -18.75 C 4.703125 -19.46875 5.25 -20.09375 6.046875 -20.09375 Z M 6.046875 -20.09375 "/></g></g></g><path fill="#ff9500" d="M 121.210938 211.8125 C 115.804688 238.082031 90.714844 255.097656 65.175781 249.816406 C 39.636719 244.53125 23.796875 222.773438 29.207031 196.5 C 34.613281 170.234375 58.613281 152.359375 84.152344 157.640625 C 109.691406 162.921875 126.617188 185.542969 121.210938 211.808594 Z M 121.210938 211.8125 " fill-opacity="1" fill-rule="nonzero"/><path fill="#ff8000" d="M 94.339844 160.84375 C 101.792969 170.632812 105.097656 183.394531 102.261719 197.160156 C 96.855469 223.429688 71.765625 240.445312 46.226562 235.160156 C 42.75 234.441406 39.457031 233.417969 36.367188 232.117188 C 42.878906 240.9375 52.910156 247.277344 65.179688 249.816406 C 90.71875 255.097656 115.808594 238.085938 121.214844 211.816406 C 125.863281 189.226562 113.996094 169.332031 94.339844 160.847656 Z M 94.339844 160.84375 " fill-opacity="1" fill-rule="nonzero"/><path fill="#ff6200" d="M 107.078125 168.855469 C 115.320312 178.816406 119.097656 192.148438 116.125 206.589844 C 110.714844 232.855469 85.628906 249.871094 60.089844 244.589844 C 51.316406 242.777344 43.691406 239.015625 37.675781 233.796875 C 44.1875 241.738281 53.699219 247.445312 65.175781 249.816406 C 90.714844 255.097656 115.804688 238.085938 121.210938 211.816406 C 124.742188 194.671875 118.753906 179.085938 107.074219 168.855469 Z M 107.078125 168.855469 " fill-opacity="1" fill-rule="nonzero"/><path fill="#529730" d="M 80.339844 162.839844 C 80.351562 162.96875 80.308594 163.097656 80.214844 163.230469 C 80.121094 163.363281 79.980469 163.496094 79.789062 163.628906 C 79.601562 163.761719 79.363281 163.890625 79.082031 164.019531 C 78.800781 164.144531 78.480469 164.265625 78.121094 164.382812 C 77.761719 164.5 77.367188 164.609375 76.941406 164.710938 C 76.511719 164.8125 76.0625 164.902344 75.585938 164.988281 C 75.109375 165.070312 74.617188 165.140625 74.109375 165.203125 C 73.601562 165.261719 73.089844 165.308594 72.570312 165.347656 C 72.050781 165.382812 71.535156 165.40625 71.023438 165.417969 C 70.515625 165.425781 70.015625 165.425781 69.535156 165.410156 C 69.050781 165.394531 68.589844 165.363281 68.152344 165.324219 C 67.71875 165.28125 67.3125 165.230469 66.9375 165.164062 C 66.566406 165.097656 66.230469 165.023438 65.933594 164.9375 C 65.640625 164.847656 65.386719 164.753906 65.179688 164.648438 C 64.972656 164.542969 64.816406 164.433594 64.707031 164.3125 C 64.59375 164.195312 64.535156 164.070312 64.527344 163.941406 C 64.519531 163.8125 64.558594 163.683594 64.652344 163.550781 C 64.746094 163.417969 64.886719 163.285156 65.078125 163.152344 C 65.269531 163.019531 65.503906 162.890625 65.785156 162.761719 C 66.066406 162.636719 66.386719 162.515625 66.746094 162.398438 C 67.109375 162.28125 67.5 162.171875 67.929688 162.070312 C 68.355469 161.96875 68.804688 161.878906 69.28125 161.792969 C 69.757812 161.710938 70.25 161.640625 70.757812 161.578125 C 71.265625 161.519531 71.777344 161.472656 72.296875 161.433594 C 72.816406 161.398438 73.332031 161.375 73.84375 161.363281 C 74.355469 161.355469 74.851562 161.355469 75.335938 161.371094 C 75.816406 161.386719 76.277344 161.417969 76.714844 161.457031 C 77.152344 161.5 77.554688 161.550781 77.929688 161.617188 C 78.300781 161.683594 78.636719 161.757812 78.933594 161.84375 C 79.230469 161.933594 79.480469 162.027344 79.6875 162.132812 C 79.894531 162.238281 80.050781 162.347656 80.164062 162.46875 C 80.273438 162.585938 80.332031 162.710938 80.339844 162.839844 Z M 80.339844 162.839844 " fill-opacity="1" fill-rule="nonzero"/><path fill="#69ce4d" d="M 33.140625 142.601562 C 33.140625 142.601562 38.980469 139.605469 48.617188 141.648438 C 58.253906 143.683594 64.71875 149.171875 69.21875 155.246094 C 69.21875 155.246094 56.714844 159.035156 47.242188 155.195312 C 37.769531 151.355469 33.140625 142.605469 33.140625 142.605469 Z M 33.140625 142.601562 " fill-opacity="1" fill-rule="nonzero"/><path fill="#529730" d="M 64.128906 153.417969 C 64.128906 153.417969 53.921875 150.914062 38.820312 144.808594 C 38.820312 144.808594 55.480469 148.324219 64.128906 153.417969 Z M 64.128906 153.417969 " fill-opacity="1" fill-rule="nonzero"/><g clip-path="url(#4d7ae126cc)"><path fill="#69ce4d" d="M 14.148438 168.960938 C 14.148438 168.960938 18.992188 160.511719 32.609375 155.242188 C 46.226562 149.972656 58.683594 151.554688 69.171875 155.464844 C 69.171875 155.464844 56.6875 170.292969 41.816406 173.1875 C 26.949219 176.085938 14.148438 168.957031 14.148438 168.957031 Z M 14.148438 168.960938 " fill-opacity="1" fill-rule="nonzero"/></g><path fill="#529730" d="M 72.4375 164.734375 C 71.703125 164.734375 71.101562 164.148438 71.089844 163.410156 C 71.085938 163.171875 71.03125 159.488281 71.273438 155.929688 C 70.664062 156.136719 70.050781 156.300781 69.449219 156.417969 C 68.71875 156.5625 68.011719 156.085938 67.867188 155.355469 C 67.726562 154.625 68.199219 153.917969 68.929688 153.773438 C 70.089844 153.542969 70.941406 153.242188 71.570312 152.921875 C 71.695312 152.058594 71.847656 151.28125 72.035156 150.660156 C 72.660156 148.609375 73.984375 148.621094 74.378906 148.671875 C 75.351562 148.800781 76.03125 149.683594 76.066406 150.867188 C 76.113281 152.371094 75.296875 153.578125 74.09375 154.484375 C 73.777344 157.59375 73.75 161.625 73.777344 163.363281 C 73.789062 164.109375 73.199219 164.722656 72.457031 164.734375 C 72.449219 164.734375 72.441406 164.734375 72.433594 164.734375 Z M 72.4375 164.734375 " fill-opacity="1" fill-rule="nonzero"/><path fill="#529730" d="M 61.375 157.320312 C 61.375 157.320312 46.679688 162.472656 22.988281 167.109375 C 22.988281 167.109375 46.527344 157.988281 61.375 157.320312 Z M 61.375 157.320312 " fill-opacity="1" fill-rule="nonzero"/><path fill="#ffffff" d="M 45.984375 182.542969 C 38.191406 190.898438 35.246094 203.15625 38.464844 214.144531 C 39.007812 215.992188 41.894531 215.207031 41.347656 213.347656 C 38.429688 203.394531 41.019531 192.25 48.097656 184.660156 C 49.410156 183.25 47.296875 181.128906 45.980469 182.542969 Z M 45.984375 182.542969 " fill-opacity="0.8" fill-rule="nonzero"/><path fill="#ffffff" d="M 42.632812 221.9375 C 44.554688 221.9375 44.5625 218.941406 42.632812 218.941406 C 40.703125 218.941406 40.703125 221.9375 42.632812 221.9375 Z M 42.632812 221.9375 " fill-opacity="0.8" fill-rule="nonzero"/></svg>